<svg xmlns="http://www.w3.org/2000/svg" xmlns:xlink="http://www.w3.org/1999/xlink" fill="none" version="1.1" width="24" height="24" viewBox="0 0 24 24"><defs><clipPath id="master_svg0_199_16350"><rect x="0" y="0" width="24" height="24" rx="0"/></clipPath></defs><g clip-path="url(#master_svg0_199_16350)"><path d="M19,13C19,13,13,13,13,13C13,13,13,19,13,19C13,19,11,19,11,19C11,19,11,13,11,13C11,13,5,13,5,13C5,13,5,11,5,11C5,11,11,11,11,11C11,11,11,5,11,5C11,5,13,5,13,5C13,5,13,11,13,11C13,11,19,11,19,11C19,11,19,13,19,13C19,13,19,13,19,13Z" fill="#8B8B8B" fill-opacity="1"/></g></svg>