<svg xmlns="http://www.w3.org/2000/svg" xmlns:xlink="http://www.w3.org/1999/xlink" fill="none" version="1.1" width="40" height="40" viewBox="0 0 40 40"><defs><clipPath id="master_svg0_201_18721"><rect x="0" y="0" width="40" height="40" rx="20"/></clipPath><clipPath id="master_svg1_201_18724"><rect x="6" y="6" width="28" height="28" rx="0"/></clipPath></defs><g clip-path="url(#master_svg0_201_18721)"><g clip-path="url(#master_svg1_201_18724)"><path d="M20,22.33331298828125C21.9366665,22.33331298828125,23.5,20.769978988281252,23.5,18.83331298828125C23.5,18.83331298828125,23.5,11.83331298828125,23.5,11.83331298828125C23.5,9.89664628828125,21.9366665,8.33331298828125,20,8.33331298828125C18.0633333,8.33331298828125,16.5,9.89664628828125,16.5,11.83331298828125C16.5,11.83331298828125,16.5,18.83331298828125,16.5,18.83331298828125C16.5,20.769978988281252,18.0633333,22.33331298828125,20,22.33331298828125C20,22.33331298828125,20,22.33331298828125,20,22.33331298828125ZM18.8333333,11.83331298828125C18.8333333,11.19164628828125,19.358333299999998,10.66664628828125,20,10.66664628828125C20.6416664,10.66664628828125,21.166666499999998,11.19164628828125,21.166666499999998,11.83331298828125C21.166666499999998,11.83331298828125,21.166666499999998,18.83331298828125,21.166666499999998,18.83331298828125C21.166666499999998,19.47497898828125,20.6416664,19.99997898828125,20,19.99997898828125C19.358333299999998,19.99997898828125,18.8333333,19.47497898828125,18.8333333,18.83331298828125C18.8333333,18.83331298828125,18.8333333,11.83331298828125,18.8333333,11.83331298828125C18.8333333,11.83331298828125,18.8333333,11.83331298828125,18.8333333,11.83331298828125Z" fill="#000000" fill-opacity="1"/><path d="M25.8333740234375,18.83331298828125C25.8333740234375,22.05331278828125,23.220040023437498,24.66664598828125,20.0000400234375,24.66664598828125C16.7800402234375,24.66664598828125,14.1667073234375,22.05331278828125,14.1667073234375,18.83331298828125C14.1667073234375,18.83331298828125,11.8333740234375,18.83331298828125,11.8333740234375,18.83331298828125C11.8333740234375,22.95164628828125,14.8783738234375,26.33497908828125,18.8333740234375,26.90664578828125C18.8333740234375,26.90664578828125,18.8333740234375,30.49997898828125,18.8333740234375,30.49997898828125C18.8333740234375,30.49997898828125,21.1667070234375,30.49997898828125,21.1667070234375,30.49997898828125C21.1667070234375,30.49997898828125,21.1667070234375,26.90664578828125,21.1667070234375,26.90664578828125C25.1217070234375,26.33497908828125,28.1667060234375,22.95164628828125,28.1667060234375,18.83331298828125C28.1667060234375,18.83331298828125,25.8333740234375,18.83331298828125,25.8333740234375,18.83331298828125C25.8333740234375,18.83331298828125,25.8333740234375,18.83331298828125,25.8333740234375,18.83331298828125C25.8333740234375,18.83331298828125,25.8333740234375,18.83331298828125,25.8333740234375,18.83331298828125Z" fill="#000000" fill-opacity="1"/></g></g></svg>