<svg xmlns="http://www.w3.org/2000/svg" xmlns:xlink="http://www.w3.org/1999/xlink" fill="none" version="1.1" width="24" height="24" viewBox="0 0 24 24"><defs><clipPath id="master_svg0_194_10362"><rect x="0" y="0" width="24" height="24" rx="0"/></clipPath></defs><g clip-path="url(#master_svg0_194_10362)"><path d="M37.14208984375,17.000244140625C37.14208984375,17.000244140625,35.14208984375,17.000244140625,35.14208984375,17.000244140625C35.14208984375,17.000244140625,35.14208984375,21.000244140625,35.14208984375,21.000244140625C35.14208984375,21.000244140625,31.14208984375,21.000244140625,31.14208984375,21.000244140625C31.14208984375,21.000244140625,31.14208984375,23.000244140625,31.14208984375,23.000244140625C31.14208984375,23.000244140625,35.14208984375,23.000244140625,35.14208984375,23.000244140625C35.14208984375,23.000244140625,35.14208984375,27.000244140625,35.14208984375,27.000244140625C35.14208984375,27.000244140625,37.14208984375,27.000244140625,37.14208984375,27.000244140625C37.14208984375,27.000244140625,37.14208984375,23.000244140625,37.14208984375,23.000244140625C37.14208984375,23.000244140625,41.14208984375,23.000244140625,41.14208984375,23.000244140625C41.14208984375,23.000244140625,41.14208984375,21.000244140625,41.14208984375,21.000244140625C41.14208984375,21.000244140625,37.14208984375,21.000244140625,37.14208984375,21.000244140625C37.14208984375,21.000244140625,37.14208984375,17.000244140625,37.14208984375,17.000244140625C37.14208984375,17.000244140625,37.14208984375,17.000244140625,37.14208984375,17.000244140625ZM36.14208984375,12.000244140625C30.62208984375,12.000244140625,26.14208984375,16.480244140625,26.14208984375,22.000244140625C26.14208984375,27.520244140625,30.62208984375,32.000244140625,36.14208984375,32.000244140625C41.662089843749996,32.000244140625,46.14208984375,27.520244140625,46.14208984375,22.000244140625C46.14208984375,16.480244140625,41.662089843749996,12.000244140625,36.14208984375,12.000244140625C36.14208984375,12.000244140625,36.14208984375,12.000244140625,36.14208984375,12.000244140625ZM36.14208984375,30.000244140625C31.73209004375,30.000244140625,28.14208984375,26.410244140625,28.14208984375,22.000244140625C28.14208984375,17.590244340625,31.73209004375,14.000244140625,36.14208984375,14.000244140625C40.55208984375,14.000244140625,44.14208984375,17.590244340625,44.14208984375,22.000244140625C44.14208984375,26.410244140625,40.55208984375,30.000244140625,36.14208984375,30.000244140625C36.14208984375,30.000244140625,36.14208984375,30.000244140625,36.14208984375,30.000244140625Z" fill="#000000" fill-opacity="1" transform="matrix(-0.70710688829422,0.7071067094802856,-0.7071067094802856,-0.70710688829422,53.112794793909416,2.0004523053212324)"/></g></svg>