<svg xmlns="http://www.w3.org/2000/svg" xmlns:xlink="http://www.w3.org/1999/xlink" fill="none" version="1.1" width="24" height="24" viewBox="0 0 24 24"><defs><clipPath id="master_svg0_201_18276"><rect x="-1" y="-1" width="26" height="26" rx="0"/></clipPath><clipPath id="master_svg1_201_18278"><rect x="-1.25" y="-1" width="26" height="26" rx="0"/></clipPath></defs><g clip-path="url(#master_svg0_201_18276)"><g clip-path="url(#master_svg1_201_18278)"><ellipse cx="11.75" cy="5" rx="2.5" ry="2.5" fill-opacity="0" stroke-opacity="0.6000000238418579" stroke="#0F172A" fill="none" stroke-width="2" stroke-linecap="ROUND" stroke-linejoin="round" style="mix-blend-mode:passthrough"/><ellipse cx="4.75" cy="19" rx="2.5" ry="2.5" fill-opacity="0" stroke-opacity="0.6000000238418579" stroke="#0F172A" fill="none" stroke-width="2" stroke-linecap="ROUND" stroke-linejoin="round" style="mix-blend-mode:passthrough"/><ellipse cx="18.75" cy="19" rx="2.5" ry="2.5" fill-opacity="0" stroke-opacity="0.6000000238418579" stroke="#0F172A" fill="none" stroke-width="2" stroke-linecap="ROUND" stroke-linejoin="round" style="mix-blend-mode:passthrough"/><path d="M12.7497997,8L12.749999,8L12.749999,11Q12.749999,12.242640999999999,11.8713202,13.1213202Q10.992640999999999,13.999999500000001,9.75,13.999999500000001L7.250001,13.9999981Q6.4215732,13.9999986,5.8357866000000005,14.585785399999999Q5.25,15.1715722,5.25,16L5.24980003,16Q5.24979997,16.0984707,5.2305890900000005,16.1950512Q5.21137822,16.291629800000003,5.17369473,16.3826065Q5.13601124,16.4735823,5.0813033,16.5554581Q5.02659535,16.637334799999998,4.95696533,16.706964499999998Q4.8873353,16.776594199999998,4.80545908,16.8313026Q4.72358286,16.886011099999997,4.63260686,16.923694599999997Q4.54163089,16.961378099999997,4.4450513,16.9805889Q4.348471709,16.9997997,4.25,16.9997997Q4.151528291,16.9997997,4.0549487,16.9805889Q3.95836911,16.961378099999997,3.86739314,16.9236937Q3.77641714,16.886011099999997,3.69454092,16.8313026Q3.6126647,16.776594199999998,3.54303467,16.706964499999998Q3.47340465,16.637334799999998,3.41869676,16.5554581Q3.36398882,16.4735823,3.32630533,16.3826065Q3.28862178,16.291629800000003,3.26941091,16.1950512Q3.2502000300000002,16.0984707,3.25019997,16L3.25,16Q3.25,14.343145400000001,4.42157263,13.1715722Q5.5931448,11.9999995,7.2499993,11.9999981L9.75,12Q10.164213199999999,12,10.4571066,11.7071068Q10.749999500000001,11.4142137,10.749999500000001,11L10.749999500000001,8L10.7501998,8Q10.7501993,7.901528291,10.7694101,7.8049487Q10.7886209,7.70836911,10.8263044,7.61739314Q10.8639879,7.52641714,10.9186959,7.44454092Q10.973403900000001,7.3626647,11.0430346,7.29303467Q11.112664200000001,7.22340465,11.194540499999999,7.16869676Q11.2764168,7.11398882,11.367392500000001,7.07630533Q11.4583683,7.03862178,11.5549483,7.0194109099999995Q11.6515279,7.00020003,11.75,7.00019997Q11.848471199999999,7.00020003,11.9450502,7.0194109099999995Q12.041629799999999,7.03862178,12.1326056,7.07630527Q12.2235818,7.11398876,12.3054581,7.1686967Q12.3873348,7.22340465,12.4569645,7.29303467Q12.5265942,7.3626647,12.5813026,7.44454092Q12.6360111,7.52641714,12.6736946,7.61739314Q12.7113781,7.70836911,12.7305889,7.8049487Q12.7497997,7.901528291,12.7497997,8Z" fill-rule="evenodd" fill="#0F172A" fill-opacity="0.30000001192092896" style="mix-blend-mode:passthrough"/><g transform="matrix(-1,0,0,1,38.5,0)"><path d="M27.7497997,8L27.749999000000003,8L27.749999000000003,11Q27.749999000000003,12.242640999999999,26.8713202,13.1213202Q25.992641,13.999999500000001,24.75,13.999999500000001L22.250001,13.9999981Q21.4215732,13.9999986,20.8357866,14.585785399999999Q20.25,15.1715722,20.25,16L20.24980003,16Q20.24979997,16.0984707,20.23058909,16.1950512Q20.21137822,16.291629800000003,20.17369473,16.3826065Q20.13601124,16.4735823,20.0813033,16.5554581Q20.02659535,16.637334799999998,19.95696533,16.706964499999998Q19.8873353,16.776594199999998,19.80545908,16.8313026Q19.72358286,16.886011099999997,19.63260686,16.923694599999997Q19.54163089,16.961378099999997,19.4450513,16.9805889Q19.348471709,16.9997997,19.25,16.9997997Q19.151528291,16.9997997,19.0549487,16.9805889Q18.95836911,16.961378099999997,18.86739314,16.9236937Q18.77641714,16.886011099999997,18.69454092,16.8313026Q18.6126647,16.776594199999998,18.54303467,16.706964499999998Q18.47340465,16.637334799999998,18.41869676,16.5554581Q18.36398882,16.4735823,18.32630533,16.3826065Q18.28862178,16.291629800000003,18.26941091,16.1950512Q18.25020003,16.0984707,18.25019997,16L18.25,16Q18.25,14.343145400000001,19.42157263,13.1715722Q20.5931448,11.9999995,22.2499993,11.9999981L24.75,12Q25.1642132,12,25.4571066,11.7071068Q25.7499995,11.4142137,25.7499995,11L25.7499995,8L25.7501998,8Q25.7501993,7.901528291,25.7694101,7.8049487Q25.788620899999998,7.70836911,25.826304399999998,7.61739314Q25.863987899999998,7.52641714,25.9186959,7.44454092Q25.9734039,7.3626647,26.0430346,7.29303467Q26.1126642,7.22340465,26.1945405,7.16869676Q26.2764168,7.11398882,26.3673925,7.07630533Q26.4583683,7.03862178,26.5549483,7.0194109099999995Q26.651527899999998,7.00020003,26.75,7.00019997Q26.8484712,7.00020003,26.9450502,7.0194109099999995Q27.0416298,7.03862178,27.132605599999998,7.07630527Q27.223581799999998,7.11398876,27.3054581,7.1686967Q27.387334799999998,7.22340465,27.456964499999998,7.29303467Q27.526594199999998,7.3626647,27.5813026,7.44454092Q27.636011099999997,7.52641714,27.673694599999997,7.61739314Q27.711378099999997,7.70836911,27.7305889,7.8049487Q27.7497997,7.901528291,27.7497997,8Z" fill-rule="evenodd" fill="#0F172A" fill-opacity="0.30000001192092896" style="mix-blend-mode:passthrough"/></g></g></g></svg>