<svg xmlns="http://www.w3.org/2000/svg" xmlns:xlink="http://www.w3.org/1999/xlink" fill="none" version="1.1" width="24" height="24" viewBox="0 0 24 24"><defs><clipPath id="master_svg0_199_16358"><rect x="0" y="0" width="24" height="24" rx="0"/></clipPath></defs><g clip-path="url(#master_svg0_199_16358)"><path d="M7.00017401875,6C7.00017401875,6,17.00017421875,6,17.00017421875,6C17.00017421875,6,11.99017431875,12.3000002,11.99017431875,12.3000002C11.99017431875,12.3000002,7.00017401875,6,7.00017401875,6C7.00017401875,6,7.00017401875,6,7.00017401875,6ZM4.25017815875,5.61C6.27017421875,8.1999998,10.00017401875,13,10.00017401875,13C10.00017401875,13,10.00017401875,19,10.00017401875,19C10.00017401875,19.55,10.450174318750001,20,11.00017401875,20C11.00017401875,20,13.00017451875,20,13.00017451875,20C13.55017371875,20,14.00017451875,19.55,14.00017451875,19C14.00017451875,19,14.00017451875,13,14.00017451875,13C14.00017451875,13,17.72017421875,8.1999998,19.74017421875,5.61C20.25017321875,4.94999999,19.78017421875,4,18.95017421875,4C18.95017421875,4,5.04017411875,4,5.04017411875,4C4.21017816875,4,3.74017816875,4.94999999,4.25017815875,5.61C4.25017815875,5.61,4.25017815875,5.61,4.25017815875,5.61Z" fill="#8B8B8B" fill-opacity="1"/></g></svg>