<svg xmlns="http://www.w3.org/2000/svg" xmlns:xlink="http://www.w3.org/1999/xlink" fill="none" version="1.1" width="28" height="28" viewBox="0 0 28 28"><defs><clipPath id="master_svg0_201_18837"><rect x="-1.100000023841858" y="-1.100000023841858" width="30.200000047683716" height="30.200000047683716" rx="0"/></clipPath></defs><g clip-path="url(#master_svg0_201_18837)"><path d="M13.9999916953125,3.4331299828125Q15.0130514953125,3.4331299828125,16.0076574953125,3.6256113828125L17.0876240953125,3.8346173828125L17.5056261953125,1.6746823828125001L16.4256577953125,1.4656863828125Q15.2239729953125,1.2331298828125,13.9999916953125,1.2331298828125Q12.7760106953125,1.2331298828125,11.5743252653125,1.4656862628125L10.4943568953125,1.6746823228125L10.9123586453125,3.8346171828125L11.9923252053125,3.6256112828125Q12.9869317953125,3.4331299828125,13.9999916953125,3.4331299828125Z" fill-rule="evenodd" fill="#000000" fill-opacity="1"/><path d="M10.4943568953125,26.325312253125L11.5743253553125,26.534308203125Q12.7760106953125,26.766864703125,13.999991895312501,26.766864703125Q15.2239729953125,26.766864703125,16.4256581953125,26.534308303125L17.5056266953125,26.325312253125L17.087624595312498,24.165377403125L16.0076579953125,24.374383203125Q15.0130519953125,24.566864493125,13.999991895312501,24.566864493125Q12.9869313953125,24.566864493125,11.9923251253125,24.374383103125L10.9123586453125,24.165377403125L10.4943568953125,26.325312253125Z" fill-rule="evenodd" fill="#000000" fill-opacity="1"/><path d="M19.0161416421875,4.6348036234375L19.9267938721875,5.2518318334375Q21.624923142187498,6.4024396234375,22.7692284421875,8.1048331234375L23.3828737421875,9.0177679234375L25.2087383421875,7.7904689234374995L24.5950841421875,6.8775396234374995Q23.2125346421875,4.8207076234375,21.1608529121875,3.4305413334375L20.2502061421875,2.8135049234375L19.0161416421875,4.6348036234375Z" fill-rule="evenodd" fill="#000000" fill-opacity="1"/><path d="M1.674805643125,10.4943562953125L1.4658087531250001,11.5743245153125Q1.233251953125,12.7760075353125,1.233251953125,13.9999894953125Q1.233251953125,15.2239706953125,1.465808573125,16.4256581953125L1.6748045731249999,17.5056266953125L3.834739453125,17.087624595312498L3.6257336531249997,16.0076579953125Q3.4332518531250003,15.0130493953125,3.4332518531250003,13.9999894953125Q3.4332518531250003,12.986929395312501,3.6257336531249997,11.9923259453125L3.834740053125,10.9123596553125L1.674805643125,10.4943562953125Z" fill-rule="evenodd" fill="#000000" fill-opacity="1"/><path d="M23.3651721625,19.0161417421875L22.7481441625,19.9267941121875Q21.5975378625,21.6249219421875,19.8951423125,22.7692284421875L18.9822072625,23.3828737421875L20.2095065125,25.2087383421875L21.1224359225,24.5950841421875Q23.1792712625,23.2125325421875,24.5694351625,21.1608526721875L25.1864709625,20.2502056921875L23.3651721625,19.0161417421875Z" fill-rule="evenodd" fill="#000000" fill-opacity="1"/><path d="M24.165377603125002,10.9123584653125L24.374383203125,11.9923250853125Q24.566864493125,12.9869317953125,24.566864493125,13.9999916953125Q24.566864493125,15.0130512953125,24.374383103125,16.0076574953125L24.165377403125,17.0876240953125L26.325312253125,17.5056256953125L26.534308203125,16.4256572953125Q26.766864703125,15.2239717953125,26.766864703125,13.9999916953125Q26.766864703125,12.7760114653125,26.534308303125,11.5743253853125L26.325312433125,10.4943570953125L24.165377603125002,10.9123584653125Z" fill-rule="evenodd" fill="#000000" fill-opacity="1"/><path d="M7.790349053125,2.79122865859375L6.877418753125,3.40488123859375Q4.820587993125,4.78742581859375,3.430418913125,6.83911415859375L2.813382953125,7.74976105859375L4.634682293125,8.98382475859375L5.2517100531250005,8.07317205859375Q6.402319953125,6.37503835859375,8.104709853125,5.2307389985937505L9.017645853125,4.61709463859375L7.790349053125,2.79122865859375Z" fill-rule="evenodd" fill="#000000" fill-opacity="1"/><path d="M2.79128979375,20.2095036825L3.4049419737499997,21.1224343225Q4.78748729375,23.1792678625,6.839175693750001,24.5694355625L7.74982289375,25.1864709625L8.98388529375,23.3651709625L8.07323269375,22.7481436625Q6.37510059375,21.5975366625,5.23080027375,19.8951438625L4.61715647375,18.9822077625L2.79128979375,20.2095036825Z" fill-rule="evenodd" fill="#000000" fill-opacity="1"/><path d="M6.82016109,13.82016103Q5.9000001,14.74032211,5.9000001,16.041666499999998Q5.9,17.5122578,8.1365961,20.7501783Q8.2609518,20.9302077,8.4447356,21.048945Q8.6285197,21.1676817,8.8437525,21.2070489Q9.0589855,21.2464166,9.272900100000001,21.200421300000002Q9.486815,21.154426100000002,9.666844600000001,21.0300703Q9.8323879,20.9157214,9.9467368,20.7501783Q12.1833329,17.5122578,12.1833329,16.041666499999998Q12.1833329,14.740321699999999,11.263171700000001,13.82016097Q10.3430104,12.9000001,9.0416656,12.9000001Q7.74032223,12.9,6.82016109,13.82016103ZM8.4942865,17.1343715Q8.1,16.3457985,8.1,16.041666499999998Q8.100000099999999,15.6515919,8.3757961,15.375796Q8.651592,15.1,9.0416656,15.100000099999999Q9.4317405,15.100000099999999,9.707536900000001,15.3757963Q9.9833331,15.6515923,9.9833331,16.041666499999998Q9.9833331,16.3457987,9.5890465,17.1343715Q9.368969700000001,17.5745251,9.041667,18.1136785Q8.714363,17.5745246,8.4942865,17.1343715Z" fill-rule="evenodd" fill="#000000" fill-opacity="1"/><path d="M17.32016109,9.15347401828125Q16.4000001,10.07363509828125,16.4000001,11.37497948828125Q16.4,12.84557078828125,18.6365961,16.08349128828125Q18.7609518,16.26352068828125,18.9447356,16.38225798828125Q19.1285197,16.50099468828125,19.3437525,16.54036188828125Q19.5589855,16.57972958828125,19.7729001,16.533734288281252Q19.986815,16.487739088281252,20.1668446,16.36338328828125Q20.3323879,16.24903438828125,20.4467368,16.08349128828125Q22.6833329,12.84557078828125,22.6833329,11.37497948828125Q22.6833329,10.073634688281249,21.7631717,9.15347395828125Q20.8430104,8.23331308828125,19.5416656,8.23331308828125Q18.24032223,8.23331298828125,17.32016109,9.15347401828125ZM18.9942865,12.46768448828125Q18.6,11.67911148828125,18.6,11.37497948828125Q18.6000001,10.98490488828125,18.8757961,10.70910898828125Q19.151592,10.43331298828125,19.5416656,10.433313088281249Q19.9317405,10.433313088281249,20.2075369,10.70910928828125Q20.4833331,10.98490528828125,20.4833331,11.37497948828125Q20.4833331,11.67911168828125,20.0890465,12.46768448828125Q19.8689697,12.907838088281249,19.541667,13.446991488281249Q19.214363,12.90783758828125,18.9942865,12.46768448828125Z" fill-rule="evenodd" fill="#000000" fill-opacity="1"/></g></svg>