<svg xmlns="http://www.w3.org/2000/svg" xmlns:xlink="http://www.w3.org/1999/xlink" fill="none" version="1.1" width="24" height="24" viewBox="0 0 24 24"><defs><clipPath id="master_svg0_201_19102"><rect x="-1" y="-1" width="26" height="26" rx="0"/></clipPath></defs><g clip-path="url(#master_svg0_201_19102)"><path d="M1,22L8,18L16,22L23,18L23,2L16,6L8,2L1,6L1,22Z" fill="#0F172A" fill-opacity="0.05000000074505806" style="mix-blend-mode:passthrough"/><path d="M8.447213600000001,1.10557282Q8.336777699999999,1.05035496,8.216227499999999,1.02365708Q8.0956774,0.9969592,7.9722543,1.00038505Q7.8488307,1.00381082,7.7299471,1.0371545Q7.611064,1.07049811,7.503861,1.1317569L0.50386107,5.1317568Q0.38906300000000005,5.1973557,0.29525851999999997,5.2905359Q0.20145404,5.3837159,0.13508986999999995,5.4980731Q0.06872571000000005,5.6124306,0.034362849999999945,5.7401061Q0,5.8677814,0,6L0,22Q5.999999996841865e-8,22.098492,0.019214810000000027,22.195089Q0.038429559999999974,22.291687,0.07612061999999997,22.382681Q0.11381160999999995,22.473675,0.16853046000000005,22.555569Q0.22324938000000005,22.637463,0.29289329,22.707106Q0.36253726,22.776749,0.44442981000000004,22.831467Q0.5263224200000001,22.886187,0.6173166,22.923878Q0.7083107799999999,22.961571,0.80490969,22.980785Q0.9015086,23,1,23Q1.26556441,23,1.4961389299999999,22.868242L8.031469300000001,19.133768L15.552787,22.894426Q15.663221,22.949642,15.783772,22.976341Q15.904322,23.00304,16.027746,22.999615Q16.151169,22.996189,16.270052,22.962845Q16.388935,22.929501,16.496139,22.868242L23.49614,18.868242Q23.610939,18.802645,23.704742,18.709465Q23.798546,18.616283,23.86491,18.501926Q23.931274,18.387569,23.965637,18.259893Q24,18.132219,24,18L24,2Q24,1.9015086,23.980785,1.8049096900000001Q23.961571,1.70831078,23.923878,1.6173166Q23.886185,1.52632242,23.831467,1.44442987Q23.776747,1.3625372599999999,23.707104,1.2928932899999999Q23.637459,1.22324938,23.555565,1.16853052Q23.473675,1.11381161,23.382679,1.0761205600000001Q23.291687,1.0384295,23.195087,1.01921481Q23.09849,1.00000006,23,1Q22.734436,1,22.50386,1.13175684L15.968531,4.8662314L8.447213600000001,1.10557282ZM8.031469300000001,3.1337687L2,6.5803227L2,20.276821L7.503861,17.131757Q7.611064,17.070498,7.7299471,17.037154Q7.8488302,17.003811,7.9722538,17.000385Q8.0956774,16.99696,8.216227499999999,17.023657Q8.336777699999999,17.050354,8.447213600000001,17.105573L15.968531,20.866232L22,17.419677L22,3.7231799L16.496139,6.8682432Q16.388935,6.929502,16.270052,6.9628458Q16.151169,6.9961891,16.027746,6.9996147Q15.904322,7.0030408,15.783772,6.9763432Q15.663221,6.949645,15.552786,6.8944273L8.031469300000001,3.1337687Z" fill-rule="evenodd" fill="#0F172A" fill-opacity="0.6000000238418579" style="mix-blend-mode:passthrough"/><path d="M7.00019997,2Q7.00020003,1.901528291,7.0194109099999995,1.8049487Q7.03862178,1.70836911,7.07630527,1.61739314Q7.11398876,1.52641714,7.1686967,1.4445409200000001Q7.22340465,1.3626646999999998,7.29303467,1.29303467Q7.3626647,1.22340465,7.44454092,1.16869676Q7.52641714,1.1139888199999999,7.61739314,1.0763053299999998Q7.70836911,1.0386217800000002,7.8049487,1.01941091Q7.901528291,1.00020003,8,1.0001999700000002Q8.098471709,1.00020003,8.1950513,1.01941091Q8.29163089,1.0386217800000002,8.38260686,1.07630527Q8.47358286,1.11398876,8.55545908,1.1686967Q8.6373353,1.22340465,8.70696533,1.29303467Q8.776595350000001,1.3626646999999998,8.83130324,1.4445409200000001Q8.88601118,1.52641714,8.92369467,1.61739314Q8.96137822,1.70836911,8.98058909,1.8049487Q8.99979997,1.901528291,8.99980003,2L9,2L9,18L8.99980003,18Q8.99979997,18.098473,8.98058909,18.195051Q8.96137822,18.29163,8.92369473,18.382607Q8.88601124,18.473583,8.8313033,18.555458Q8.776595350000001,18.637335,8.70696533,18.706964Q8.6373353,18.776594,8.55545908,18.831301Q8.47358286,18.886009,8.38260686,18.923693Q8.29163089,18.961376,8.1950513,18.980587Q8.098471709,18.999798,8,18.9998Q7.901528291,18.999798,7.8049487,18.980587Q7.70836911,18.961376,7.61739314,18.923695Q7.52641714,18.886009,7.44454092,18.831303Q7.3626647,18.776594,7.29303467,18.706964Q7.22340465,18.637335,7.16869676,18.555458Q7.11398882,18.473581,7.07630533,18.382605Q7.03862178,18.29163,7.0194109099999995,18.195049Q7.00020003,18.098473,7.00019997,18L7,18L7,2L7.00019997,2Z" fill-rule="evenodd" fill="#0F172A" fill-opacity="0.6000000238418579" style="mix-blend-mode:passthrough"/><path d="M15.00019997,6Q15.00020003,5.901528291,15.01941091,5.8049487Q15.03862178,5.70836911,15.07630527,5.61739314Q15.11398876,5.52641714,15.1686967,5.44454092Q15.223404649999999,5.3626647,15.29303467,5.29303467Q15.3626647,5.22340465,15.44454092,5.16869676Q15.52641714,5.11398882,15.61739314,5.07630533Q15.70836911,5.03862178,15.8049487,5.0194109099999995Q15.901528291,5.00020003,16,5.00019997Q16.098471709,5.00020003,16.1950513,5.0194109099999995Q16.29163089,5.03862178,16.38260686,5.07630527Q16.47358286,5.11398876,16.55545908,5.1686967Q16.6373353,5.22340465,16.70696533,5.29303467Q16.77659535,5.3626647,16.83130324,5.44454092Q16.88601118,5.52641714,16.92369467,5.61739314Q16.96137822,5.70836911,16.98058909,5.8049487Q16.99979997,5.901528291,16.99980003,6L17,6L17,22L16.99980003,22Q16.99979997,22.098473,16.98058909,22.195051Q16.96137822,22.29163,16.92369473,22.382607Q16.88601124,22.473583,16.8313033,22.555458Q16.77659535,22.637335,16.70696533,22.706964Q16.6373353,22.776594,16.55545908,22.831301Q16.47358286,22.886009,16.38260686,22.923693Q16.29163089,22.961376,16.1950513,22.980587Q16.098471709,22.999798,16,22.9998Q15.901528291,22.999798,15.8049487,22.980587Q15.70836911,22.961376,15.61739314,22.923695Q15.52641714,22.886009,15.44454092,22.831303Q15.3626647,22.776594,15.29303467,22.706964Q15.223404649999999,22.637335,15.16869676,22.555458Q15.11398882,22.473581,15.07630533,22.382605Q15.03862178,22.29163,15.01941091,22.195049Q15.00020003,22.098473,15.00019997,22L15,22L15,6L15.00019997,6Z" fill-rule="evenodd" fill="#0F172A" fill-opacity="0.6000000238418579" style="mix-blend-mode:passthrough"/><ellipse cx="12" cy="10" rx="2" ry="2" fill="#0F172A" fill-opacity="0.30000001192092896" style="mix-blend-mode:passthrough"/></g></svg>