<svg xmlns="http://www.w3.org/2000/svg" xmlns:xlink="http://www.w3.org/1999/xlink" fill="none" version="1.1" width="24" height="24" viewBox="0 0 24 24"><defs><clipPath id="master_svg0_199_16456"><rect x="-1" y="-1" width="26" height="26" rx="0"/></clipPath></defs><g clip-path="url(#master_svg0_199_16456)"><ellipse cx="12" cy="12" rx="2.5" ry="2.5" fill-opacity="0" stroke-opacity="0.30000001192092896" stroke="#0F172A" fill="none" stroke-width="2" stroke-linecap="ROUND" stroke-linejoin="round" style="mix-blend-mode:passthrough"/><path d="M20.319138,15.393934Q20.48646,15.003532,20.91,15.000017L20.912413,15L21,15Q22.242643,15,23.121323,14.121321Q24,13.242643,24,12Q24,10.7573586,23.121323,9.8786802Q22.242643,9,21,9L20.833988,9.0000076Q20.476366,8.998581399999999,20.300379,8.722880400000001Q20.278887,8.6159854,20.234863,8.5162344Q20.057234,8.1137576,20.357105,7.807107L20.416714,7.7474995Q21.296574,6.8686175,21.296574,5.625Q21.296574,4.3813827,20.4175,3.5032873Q19.53862,2.6234268,18.295,2.6234268Q17.051382,2.6234268,16.172895,3.5028915L16.120735,3.5551367Q15.806243,3.862766,15.393932,3.6808603Q15.001696,3.5127521,15,3.0899999L15,3Q15,1.75735962,14.121321,0.87867967Q13.24264,0,12,2.9999999995311555e-7Q10.7573595,5.999999996841865e-8,9.8786793,0.87867975Q9,1.75735903,9,3L9.0000076,3.166012Q8.998581399999999,3.5236354,8.7228818,3.6996202Q8.6159863,3.721113,8.5162349,3.7651372Q8.113756200000001,3.9427669,7.8071051,3.6428912L7.7475004,3.583287Q6.868619,2.7034267,5.625,2.7034267Q4.3813815,2.7034267,3.5032868,3.5825005Q2.6234272,4.4613817000000004,2.6234272,5.7049999Q2.6234272,6.9486175,3.5028951,7.8271093L3.5551372,7.8792644Q3.862767,8.1937561,3.6851373,8.596234800000001Q3.6723745,8.6251526,3.6614637,8.654819Q3.5104575,9.0654001,3.0762339,9.0799999L2.9999989,9.079998Q1.75735891,9.0799999,0.87867928,9.9586802Q-1.9999999989472883e-7,10.8373604,2.9999999995311555e-7,12.08Q5.999999996841865e-8,13.322639,0.87867975,14.20132Q1.75735968,15.08,3,15.08L3.1660111,15.079992Q3.5927525,15.081695,3.7651367,15.483764Q3.9427667,15.886244,3.6428912,16.192894000000003L3.583287,16.252499Q2.7034271,17.13138,2.7034271,18.375Q2.7034271,19.618616,3.5825002,20.496712Q4.4613833,21.376572,5.7049999,21.376572Q6.948617,21.376572,7.8271036,20.497108L7.8792629,20.444864Q8.1937575,20.137234,8.596234800000001,20.314861Q8.625152100000001,20.327625,8.654817600000001,20.338535Q9.0654001,20.489542,9.0799999,20.923765L9.079998,21.000002Q9.0799999,22.242643,9.9586802,23.121323Q10.8373585,24,12.08,24Q13.322642,24,14.20132,23.121323Q15.08,22.242643,15.08,21L15.079992,20.83399Q15.081695,20.407248,15.483761,20.234863Q15.886242,20.057236,16.192892999999998,20.357105L16.252499,20.416714Q17.131382,21.296574,18.375,21.296574Q19.618614,21.296574,20.496712,20.4175Q21.376572,19.538618,21.376572,18.295Q21.376572,17.051384,20.497112,16.1729L20.444864,16.120737Q20.137234,15.806242,20.319138,15.393934ZM21,13L20.91,13L20.906012,13.000008Q19.166227,13.006948,18.480862,14.606067Q17.760958,16.237102999999998,19.015137,17.519264L19.082886,17.587101Q19.376572,17.880461,19.376572,18.295Q19.376572,18.709539,19.083286,19.002499Q18.789539,19.296574,18.375,19.296574Q17.960461,19.296574,17.6675,19.003286L17.607105,18.942894Q16.317111,17.680962,14.676238,18.405136Q13.08695,19.086226,13.080008,20.82601L13.08,21Q13.08,22,12.08,22Q11.08,22,11.079998,21L11.08,20.91Q11.08,20.898308,11.079727,20.886616Q11.03793,19.09973,9.3747759,18.472486Q7.7515588,17.772047,6.4807367,19.015137L6.4128971,19.08289Q6.1195402,19.376572,5.7049999,19.376572Q5.2904601,19.376572,4.9974992,19.083286Q4.7034271,18.789539,4.7034271,18.375Q4.7034271,17.960461,4.9967132,17.6675L5.0571089,17.607105Q6.3190432,16.317107,5.5948629,14.676235Q4.9137771,13.086947,3.1739886,13.080008L3,13.08Q2.5857856999999997,13.08,2.2928933000000002,12.787107Q2.0000001999999997,12.494215,2.0000004000000002,12.08Q1.99999994,11.08,3.0000012,11.079998L3.0899999,11.08Q3.1016936,11.08,3.113384,11.079727Q4.900265,11.03793,5.5275087,9.3747892Q6.2279601,7.7515616,4.9848628,6.4807353L4.9171052,6.4128914Q4.6234272,6.1195397,4.6234272,5.7049999Q4.6234272,5.2904606,4.9167135,4.9975002Q5.2104607,4.7034268,5.625,4.7034268Q6.0395393,4.7034268,6.3324995,4.9967132L6.3928947,5.0571089Q7.6102228,6.2479568,9.1400099,5.6701498Q9.2716923,5.6515298,9.3939314,5.5991397Q10.9930544,4.9137771,10.9999924,3.1739876L11,3Q11,2.5857863,11.292893,2.2928933000000002Q11.585787,2.0000001999999997,12,2.0000004000000002Q12.5,2.0000001999999997,12.75,2.2500001000000003Q13,2.5,13,3L13,3.0899999Q13.006948,4.833776,14.606068,5.5191393Q16.237105,6.2390437,17.519264,4.984863300000001L17.587105,4.917108499999999Q17.880463,4.6234269,18.295,4.6234269Q18.709539,4.6234269,19.002499,4.9167132Q19.296574,5.2104607,19.296574,5.625Q19.296574,6.0395393,19.003286,6.3325L18.942894,6.3928928Q17.752045,7.6102276,18.329849,9.140008Q18.348469,9.2716923,18.40086,9.3939323Q19.086224,10.9930544,20.826012,10.9999924L21,11Q22,11,22,12Q22,13,21,13Z" fill-rule="evenodd" fill="#0F172A" fill-opacity="0.6000000238418579" style="mix-blend-mode:passthrough"/></g></svg>