<svg xmlns="http://www.w3.org/2000/svg" xmlns:xlink="http://www.w3.org/1999/xlink" fill="none" version="1.1" width="24" height="24" viewBox="0 0 24 24"><defs><clipPath id="master_svg0_199_16423"><rect x="-1" y="-1" width="26" height="26" rx="0"/></clipPath></defs><g clip-path="url(#master_svg0_199_16423)"><path d="M22,11.499999989770508L22,10.999999989770508Q22,10.972436389770508,21.998482,10.944915289770508Q21.798851,7.3263539897705074,19.236248,4.763751789770508Q16.673648,2.201150779770508,13.055086,2.001518369770508Q13.027564,1.9999999997705078,13,1.9999999997705078L12.5026073,2.000003399770508Q10.2551928,1.9941434897705077,8.252941100000001,3.0054957074705078Q3.0022722087,5.629693989770508,3.0000034173331,11.497391689770508Q2.9947009315,13.530821389770507,3.82368809,15.366658389770508L2.0513168,20.68377138977051Q2,20.837720389770507,1.9999999,21.00000038977051Q1.9999999,21.162279389770507,2.05131662,21.316228389770508Q2.08246237,21.40966438977051,2.13123828,21.495229389770508Q2.18001425,21.58079338977051,2.2445460600000002,21.655201389770507Q2.30907774,21.729606389770506,2.38688534,21.78999338977051Q2.46469295,21.850380389770507,2.5527862900000002,21.89442638977051Q2.6408796900000002,21.938472389770507,2.73587346,21.964487389770508Q2.83086725,21.990501389770508,2.929110855,21.99748438977051Q3.027354468,22.00446538977051,3.12507248,21.992145389770506Q3.22279048,21.97982738977051,3.31622764,21.948682389770507L8.6333318,20.176317389770507Q10.4689655,21.00529838977051,12.5003872,21.00000038977051Q18.370306,20.99773238977051,20.992601,15.750850389770507Q22.005852,13.744806389770508,22,11.499999989770508ZM20,11.028325989770508L20,11.499999989770508Q20.004612,13.270827389770508,19.207401,14.849149389770508Q17.133760000000002,18.99820938977051,12.4996138,19.00000038977051Q10.7291641,19.00461338977051,9.1508536,18.20740338977051Q8.9723597,18.11724438977051,8.772920599999999,18.102663389770505Q8.573481600000001,18.088081389770508,8.3837719,18.151317389770508L4.5811388,19.41886138977051L5.8486834000000005,15.616228389770507Q5.9119201,15.426518389770507,5.8973379,15.227079389770507Q5.8827560000000005,15.027640389770507,5.7925982000000005,14.849145389770507Q4.9953855,13.270828389770507,4.9999965,11.502607389770509Q5.0017939,6.866240489770508,9.1470585,4.794504889770508Q10.7291708,3.9953862397705078,12.4973927,3.9999966897705077L12.9716721,3.9999997897705075Q15.809549,4.165478689770508,17.822036,6.177965189770507Q19.834522,8.190451189770508,20,11.028325989770508Z" fill-rule="evenodd" fill="#0F172A" fill-opacity="0.6000000238418579" style="mix-blend-mode:passthrough"/><path d="M8,14L16,14L16,13.99980003Q16.0984707,13.99979997,16.1950512,13.98058909Q16.291629800000003,13.96137822,16.3826065,13.92369473Q16.4735823,13.88601124,16.5554581,13.8313033Q16.637334799999998,13.776595350000001,16.706964499999998,13.70696533Q16.776594199999998,13.6373353,16.8313026,13.55545908Q16.886011099999997,13.47358286,16.923694599999997,13.38260686Q16.961378099999997,13.29163089,16.9805889,13.1950513Q16.9997997,13.098471709,16.9997997,13Q16.9997997,12.901528291,16.9805889,12.8049487Q16.961378099999997,12.70836911,16.9236937,12.61739314Q16.886011099999997,12.52641714,16.8313026,12.44454092Q16.776594199999998,12.3626647,16.706964499999998,12.29303467Q16.637334799999998,12.223404649999999,16.5554581,12.16869676Q16.4735823,12.11398882,16.3826065,12.07630533Q16.291629800000003,12.03862178,16.1950512,12.01941091Q16.0984707,12.00020003,16,12.00019997L16,12L8,12L8,12.00019997Q7.901528291,12.00020003,7.8049487,12.01941091Q7.70836911,12.03862178,7.61739314,12.07630527Q7.52641714,12.11398876,7.44454092,12.1686967Q7.3626647,12.223404649999999,7.29303467,12.29303467Q7.22340465,12.3626647,7.16869676,12.44454092Q7.11398882,12.52641714,7.07630533,12.61739314Q7.03862178,12.70836911,7.0194109099999995,12.8049487Q7.00020003,12.901528291,7.00019997,13Q7.00020003,13.098471709,7.0194109099999995,13.1950513Q7.03862178,13.29163089,7.07630527,13.38260686Q7.11398876,13.47358286,7.1686967,13.55545908Q7.22340465,13.6373353,7.29303467,13.70696533Q7.3626647,13.776595350000001,7.44454092,13.83130324Q7.52641714,13.88601118,7.61739314,13.92369467Q7.70836911,13.96137822,7.8049487,13.98058909Q7.901528291,13.99979997,8,13.99980003L8,14Z" fill-rule="evenodd" fill="#0F172A" fill-opacity="0.30000001192092896" style="mix-blend-mode:passthrough"/><path d="M8,11L13,11L13,10.99980003Q13.0984716,10.99979997,13.1950512,10.98058909Q13.291630699999999,10.96137822,13.3826065,10.92369473Q13.4735823,10.88601124,13.555458999999999,10.8313033Q13.6373348,10.776595350000001,13.7069654,10.70696533Q13.7765951,10.6373353,13.8313031,10.55545908Q13.886011100000001,10.47358286,13.923694099999999,10.38260686Q13.961378100000001,10.29163089,13.9805889,10.1950513Q13.9997997,10.098471709,13.9998002,10Q13.9997997,9.901528291,13.9805889,9.8049487Q13.961378100000001,9.70836911,13.923694099999999,9.61739314Q13.886011100000001,9.52641714,13.8313026,9.44454092Q13.7765951,9.3626647,13.7069654,9.29303467Q13.6373348,9.223404649999999,13.5554585,9.16869676Q13.4735823,9.11398882,13.3826065,9.07630533Q13.291630699999999,9.03862178,13.1950512,9.01941091Q13.0984716,9.00020003,13,9.00019997L13,9L8,9L8,9.00019997Q7.901528291,9.00020003,7.8049487,9.01941091Q7.70836911,9.03862178,7.61739314,9.07630527Q7.52641714,9.11398876,7.44454092,9.1686967Q7.3626647,9.223404649999999,7.29303467,9.29303467Q7.22340465,9.3626647,7.16869676,9.44454092Q7.11398882,9.52641714,7.07630533,9.61739314Q7.03862178,9.70836911,7.0194109099999995,9.8049487Q7.00020003,9.901528291,7.00019997,10Q7.00020003,10.098471709,7.0194109099999995,10.1950513Q7.03862178,10.29163089,7.07630527,10.38260686Q7.11398876,10.47358286,7.1686967,10.55545908Q7.22340465,10.6373353,7.29303467,10.70696533Q7.3626647,10.776595350000001,7.44454092,10.83130324Q7.52641714,10.88601118,7.61739314,10.92369467Q7.70836911,10.96137822,7.8049487,10.98058909Q7.901528291,10.99979997,8,10.99980003L8,11Z" fill-rule="evenodd" fill="#0F172A" fill-opacity="0.30000001192092896" style="mix-blend-mode:passthrough"/></g></svg>