<svg xmlns="http://www.w3.org/2000/svg" xmlns:xlink="http://www.w3.org/1999/xlink" fill="none" version="1.1" width="24" height="24" viewBox="0 0 24 24"><defs><clipPath id="master_svg0_199_16356"><rect x="0" y="0" width="24" height="24" rx="0"/></clipPath></defs><g clip-path="url(#master_svg0_199_16356)"><path d="M19.370001,12.8C19.370001,12.8,11.9899998,18.540001,11.9899998,18.540001C11.9899998,18.540001,4.62,12.81,4.62,12.81C4.62,12.81,3,14.07,3,14.07C3,14.07,12,21.07,12,21.07C12,21.07,21,14.07,21,14.07C21,14.07,19.370001,12.8,19.370001,12.8C19.370001,12.8,19.370001,12.8,19.370001,12.8ZM12,2C12,2,3,9,3,9C3,9,4.63,10.2700005,4.63,10.2700005C4.63,10.2700005,12,16,12,16C12,16,19.360001,10.2700005,19.360001,10.2700005C19.360001,10.2700005,21,9,21,9C21,9,12,2,12,2C12,2,12,2,12,2ZM12,13.47C12,13.47,6.26,9,6.26,9C6.26,9,12,4.529999999999999,12,4.529999999999999C12,4.529999999999999,17.740000000000002,9,17.740000000000002,9C17.740000000000002,9,12,13.47,12,13.47C12,13.47,12,13.47,12,13.47Z" fill="#8B8B8B" fill-opacity="1"/></g></svg>