<svg xmlns="http://www.w3.org/2000/svg" xmlns:xlink="http://www.w3.org/1999/xlink" fill="none" version="1.1" width="40" height="40" viewBox="0 0 40 40"><defs><clipPath id="master_svg0_194_10330"><rect x="0" y="0" width="40" height="40" rx="20"/></clipPath></defs><g clip-path="url(#master_svg0_194_10330)"><path d="M20,6C14.4714289,6,10,10.382,10,15.8000002C10,23.15,20,34.000001999999995,20,34.000001999999995C20,34.000001999999995,30,23.15,30,15.8000002C30,10.382,25.528571,6,20,6C20,6,20,6,20,6ZM12.8571429,15.8000002C12.8571429,11.935999899999999,16.0571427,8.8,20,8.8C23.942858,8.8,27.142859,11.935999899999999,27.142859,15.8000002C27.142859,19.832000999999998,23.028571,25.865999,20,29.632C17.0285716,25.894001,12.8571429,19.790001,12.8571429,15.8000002C12.8571429,15.8000002,12.8571429,15.8000002,12.8571429,15.8000002Z" fill="#000000" fill-opacity="1"/><path d="M20.000000201049804,19.300000690734862C21.972443601049804,19.300000690734862,23.571428801049805,17.732994090734863,23.571428801049805,15.800000390734864C23.571428801049805,13.867006190734863,21.972443601049804,12.300000190734863,20.000000201049804,12.300000190734863C18.027557501049806,12.300000190734863,16.428571701049805,13.867006190734863,16.428571701049805,15.800000390734864C16.428571701049805,17.732994090734863,18.027557501049806,19.300000690734862,20.000000201049804,19.300000690734862C20.000000201049804,19.300000690734862,20.000000201049804,19.300000690734862,20.000000201049804,19.300000690734862Z" fill="#000000" fill-opacity="1"/></g></svg>