<svg xmlns="http://www.w3.org/2000/svg" xmlns:xlink="http://www.w3.org/1999/xlink" fill="none" version="1.1" width="24.000001251506887" height="24.000001251506887" viewBox="0 0 24.000001251506887 24.000001251506887"><defs><clipPath id="master_svg0_199_16529"><rect x="-0.7499987484931125" y="-0.75" width="25.5" height="25.5" rx="0"/></clipPath></defs><g transform="matrix(1,5.2146120310681e-8,-5.2146120310681e-8,1,0,-6.526122872294442e-14)" clip-path="url(#master_svg0_199_16529)"><path d="M20.295363270256885,6.8977919Q21.22798567025689,5.9339949999999995,21.237619270256886,4.585357L21.237638770256886,4.5799999Q21.237638770256886,3.2031984,20.264928670256886,2.2278804Q19.289663170256887,1.25,17.90763887025689,1.2500003Q16.524478470256888,1.2500001200000002,15.551058320256887,2.22341989Q14.577637970256887,3.1968397,14.577638090256887,4.580000200000001Q14.577638090256887,5.9303688999999995,15.510437230256887,6.8970404Q16.440582070256887,7.860961,17.780482370256887,7.9095082Q17.84178767025689,7.9117293,17.902638970256888,7.9039588Q17.963489870256886,7.9117293,18.024793970256887,7.9095082Q19.363298270256887,7.861012,20.295363270256885,6.8977919ZM19.737636370256887,4.5773201Q19.73669077025689,3.8223928000000003,19.202849170256886,3.2871196Q18.667165770256887,2.75,17.90763887025689,2.75000036Q17.145798670256887,2.75000018,16.611718370256888,3.2840803999999997Q16.077637970256887,3.8181604,16.077638150256888,4.580000200000001Q16.077638150256888,5.324658599999999,16.589839970256886,5.8554597Q17.08053107025689,6.3639688,17.779775170256887,6.4077754Q17.902632570256888,6.3962512,18.025494370256887,6.4077749Q18.724646670256888,6.363946,19.217413270256888,5.8547080000000005Q19.731393170256887,5.3235478,19.737636370256887,4.5773201Z" fill-rule="evenodd" fill="#A9B2B5" fill-opacity="1"/><path d="M19.16266205150689,8.84985602Q17.981546451506887,8.64583623,16.808084901506888,8.85140663L16.808110791506888,8.85155439Q16.74343985150689,8.86288369,16.681721831506888,8.88527936Q16.620003821506888,8.90767503,16.56311691150689,8.94045556Q16.506230021506887,8.97323608,16.455905531506886,9.01540393Q16.40558100150689,9.05757177,16.363350331506886,9.10784358Q16.32111972150689,9.15811542,16.288268151506887,9.21496132Q16.25541657150689,9.27180724,16.232943831506887,9.33349726Q16.210471151506887,9.39518728,16.19906115150689,9.459844023Q16.187651221506886,9.524500769,16.187651221506886,9.590156555Q16.187651221506886,9.66401032,16.202059451506887,9.73644502Q16.21646756150689,9.80887973,16.244730171506887,9.87711173Q16.272992791506887,9.9453437,16.314023791506887,10.00675088Q16.355054731506886,10.06815803,16.407277221506888,10.120380579999999Q16.45949974150689,10.17260313,16.52090692150689,10.21363401Q16.582314071506886,10.254665020000001,16.650546071506888,10.28292763Q16.718778071506886,10.31119025,16.79121277150689,10.32559836Q16.863647468506887,10.34000659,16.937501251506887,10.34000659Q17.00268536750689,10.34000659,17.066891711506887,10.32875872L17.066917601506887,10.32890648Q17.983355251506886,10.16836232,18.907340751506887,10.32796669Q19.83418355150689,10.48806465,20.492807951506887,10.9251207Q21.21500045150689,11.4065843,21.21500045150689,12.0101962Q21.21500045150689,12.6138079,20.491475451506886,13.0961578Q19.839731951506888,13.5327015,18.92364385150689,13.6940675Q18.010827151506888,13.8548574,17.09167705150689,13.700547199999999L17.091652291506886,13.7006946Q17.030008449506887,13.6903458,16.96750193850689,13.6903458Q16.89364816250689,13.6903458,16.821213471506887,13.7047539Q16.748778791506886,13.719162,16.680546821506887,13.7474246Q16.61231482150689,13.7756872,16.550907671506888,13.8167181Q16.489500491506888,13.857749,16.437277971506887,13.9099717Q16.38505548150689,13.962194,16.34402448150689,14.0236011Q16.30299353150689,14.0850081,16.274730921506887,14.153240199999999Q16.24646824150689,14.2214723,16.232060131506888,14.2939072Q16.217651901506887,14.3663421,16.217651901506887,14.440196Q16.217651901506887,14.506187,16.229177651506888,14.5711632Q16.240703401506888,14.6361399,16.26340061150689,14.6981044Q16.286097881506887,14.7600689,16.31926882150689,14.8171167Q16.352439761506886,14.8741646,16.39506465150689,14.9245415Q16.43768951150689,14.9749193,16.488457981506887,15.0170774Q16.539226471506886,15.0592365,16.59657788150689,15.0918794Q16.653929321506887,15.124523199999999,16.716100621506886,15.1466475Q16.778271901506887,15.1687717,16.843351796506887,15.1796975L16.84332694850689,15.1798453Q18.016932751506886,15.3768749,19.183858251506887,15.1713243Q20.41158585150689,14.9550638,21.32352575150689,14.3442335Q22.71500045150689,13.4165833,22.71500045150689,12.0101962Q22.71500045150689,10.6038086,21.322193451506887,9.67527287Q20.400553951506886,9.063683,19.16266205150689,8.84985602Z" fill-rule="evenodd" fill="#A9B2B5" fill-opacity="1"/><path d="M3.7002508640068874,2.22788036Q2.7275404940068873,3.2031986,2.7275406140068874,4.5799999L2.7275594440068875,4.585357Q2.7371925140068876,5.9339949999999995,3.6698152740068872,6.8977919Q4.601879514006887,7.861012,5.940384014006888,7.9095082Q6.001688814006887,7.9117293,6.062539414006888,7.9039588Q6.123390714006888,7.9117293,6.184696014006887,7.9095082Q7.524596514006888,7.860961,8.454741814006887,6.8970399Q9.387539714006888,5.9303694,9.387539714006888,4.580000200000001Q9.387539714006888,3.1968399,8.414120514006887,2.22342008Q7.440701114006887,1.2500001200000002,6.057541414006888,1.2500003Q4.675516814006888,1.25,3.7002508640068874,2.22788036ZM4.227542284006887,4.5773623Q4.233800054006887,5.3235626,4.747765314006887,5.8547080000000005Q5.240532414006887,6.3639464,5.939684914006888,6.4077749Q6.062546114006887,6.3962512,6.185404614006887,6.4077754Q6.884648114006888,6.3639684,7.375338414006888,5.8554599Q7.887540114006887,5.3246589,7.887540114006887,4.580000200000001Q7.887540114006887,3.8181604,7.353460114006888,3.2840800999999997Q6.819380314006887,2.75000024,6.057541414006888,2.75000036Q5.2980134140068875,2.75,4.762330014006888,3.2871196Q4.2284724140068874,3.8224084,4.227542284006887,4.5773623Z" fill-rule="evenodd" fill="#A9B2B5" fill-opacity="1"/><path d="M5.057661551506888,10.32796669Q5.981647351506887,10.1683622,6.898084951506887,10.32890648L6.8981106515068875,10.32875872Q6.962317251506888,10.34000659,7.027501451506888,10.34000659Q7.101354851506888,10.34000659,7.173789751506887,10.32559836Q7.246224651506887,10.31119025,7.314456251506887,10.28292757Q7.3826883515068875,10.254665020000001,7.444095451506888,10.21363401Q7.505502951506887,10.17260313,7.557725251506888,10.120380579999999Q7.609947551506887,10.06815803,7.650978351506888,10.00675088Q7.692009251506888,9.94534367,7.720272351506887,9.8771117Q7.748534451506887,9.8088797,7.762942651506887,9.73644502Q7.777351651506888,9.66401032,7.777351651506888,9.590156555Q7.777351651506888,9.524500772,7.765941451506888,9.45984403Q7.754531251506887,9.39518729,7.7320588515068875,9.33349727Q7.709585951506887,9.27180725,7.676734251506887,9.21496135Q7.643883051506887,9.15811545,7.6016524515068875,9.10784361Q7.559421851506888,9.0575718,7.509097351506887,9.01540396Q7.458772951506887,8.973236140000001,7.4018862515068875,8.94045556Q7.3449991515068875,8.90767503,7.283281151506888,8.88527936Q7.221562651506887,8.86288369,7.156892151506887,8.85155439L7.156917851506887,8.85140663Q5.983456451506887,8.64583623,4.802340551506887,8.84985602Q3.5644480515068873,9.063683,2.6428080815068875,9.67527266Q1.2500012515068875,10.6038086,1.2500012515068875,12.0101962Q1.2500012515068875,13.4165838,2.6414760915068873,14.3442335Q3.5534167515068873,14.9550638,4.781144251506888,15.1713243Q5.9480701515068874,15.3768749,7.121676251506887,15.1798453L7.121651451506888,15.1796975Q7.1867316515068875,15.1687717,7.248902651506888,15.1466475Q7.311074051506887,15.124523199999999,7.368425651506888,15.091879800000001Q7.425776751506888,15.0592365,7.476545151506888,15.0170779Q7.527313551506888,14.9749193,7.5699384515068875,14.9245415Q7.612563451506888,14.8741646,7.645734651506888,14.8171167Q7.678905751506887,14.7600689,7.701603251506888,14.6981044Q7.724300251506888,14.6361399,7.735825851506887,14.5711632Q7.7473509515068875,14.506187,7.7473509515068875,14.440196Q7.7473509515068875,14.3663421,7.732942851506888,14.2939072Q7.718534251506887,14.2214723,7.690271651506888,14.153240199999999Q7.662008551506887,14.0850077,7.620977651506887,14.0236006Q7.579946851506888,13.9621935,7.527724551506887,13.909971200000001Q7.475501851506888,13.857749,7.414094751506887,13.8167176Q7.3526871515068875,13.7756867,7.284455551506888,13.7474241Q7.216224051506887,13.719162,7.143789551506887,13.7047539Q7.0713551515068875,13.6903458,6.997501151506888,13.6903458Q6.934994551506888,13.6903458,6.873350951506888,13.7006946L6.8733261515068875,13.700547199999999Q5.9541755515068875,13.8548574,5.041358251506887,13.6940675Q4.125269951506887,13.5327015,3.4735264515068875,13.0961578Q2.7500012515068875,12.6138079,2.7500012515068875,12.0101962Q2.7500011915068874,11.4065843,3.4721929515068872,10.9251209Q4.1308184515068875,10.48806477,5.057661551506888,10.32796669Z" fill-rule="evenodd" fill="#A9B2B5" fill-opacity="1"/><path d="M14.298545176506888,14.370512462499999Q15.230458576506887,13.4048528625,15.240100676506888,12.0550532625L15.240119776506887,12.0496959625Q15.240119776506887,10.6728942625,14.267404376506889,9.6975872325Q13.292142676506888,8.7197265625,11.910119376506888,8.7197267425Q10.526960476506888,8.7197267425,9.553529126506888,9.6931215625Q8.580079376506887,10.6665348625,8.580079376506887,12.0496966625Q8.580079316506888,13.400066862500001,9.512904076506887,14.3667430625Q10.443064076506888,15.3306569625,11.782964276506888,15.379203762500001Q11.844269776506888,15.3814253625,11.905121176506889,15.3736548625Q11.963261376506887,15.3810791625,12.021848776506888,15.3793811625Q13.362432276506887,15.3405237625,14.298545176506888,14.370512462499999ZM13.740117876506886,12.047016662499999Q13.739172276506888,11.2920954625,13.205334476506888,10.7568350625Q12.669653276506887,10.2197265625,11.910119376506888,10.2197266825Q11.148264376506887,10.2197266825,10.614169376506887,10.7538015625Q10.080079376506887,11.2878715625,10.080079376506887,12.0496966625Q10.080079376506887,12.7943470625,10.592295076506888,13.3251504625Q11.083001676506887,13.8336644625,11.782254276506887,13.8774719625Q11.906791976506888,13.8657898625,12.031330176506888,13.8777899625Q12.726388476506887,13.839529562500001,13.219193276506887,13.3288795625Q13.733858876506886,12.7955775625,13.740117876506886,12.047016662499999Z" fill-rule="evenodd" fill="#686E78" fill-opacity="1"/><path d="M16.717501954631885,19.4893751Q16.717501954631885,18.0829879,15.326027254631889,17.15533735Q13.944583754631887,16.23437548,12.003748254631887,16.23437548Q10.064098654631888,16.23437548,8.675757524631887,17.15413392Q7.282472074631888,18.0829877,7.2824719546318875,19.4893754Q7.2824719546318875,20.8957624,8.673946504631887,21.8234129Q10.062326254631888,22.7518749,11.999998354631888,22.7518749Q13.937674354631888,22.7518749,15.326926054631887,21.822813Q16.717501954631885,20.8957622,16.717501954631885,19.4893751ZM12.003748254631887,17.73437554Q13.490420154631888,17.73437542,14.493976454631888,18.403412799999998Q15.217501454631886,18.885763,15.217501454631886,19.4893751Q15.217501454631886,20.0929873,14.493079054631888,20.575937500000002Q13.482331054631889,21.2518749,11.999998354631888,21.2518749Q10.517661854631887,21.2518749,9.505997254631888,20.5753376Q8.782471954631887,20.0929868,8.782471954631887,19.4893754Q8.782471954631887,18.8857633,9.504186354631887,18.404616400000002Q10.515889654631888,17.73437554,12.003748254631887,17.73437554Z" fill-rule="evenodd" fill="#686E78" fill-opacity="1"/></g></svg>