<svg xmlns="http://www.w3.org/2000/svg" xmlns:xlink="http://www.w3.org/1999/xlink" fill="none" version="1.1" width="40" height="40" viewBox="0 0 40 40"><defs><clipPath id="master_svg0_201_18685"><rect x="0" y="0" width="40" height="40" rx="20"/></clipPath><clipPath id="master_svg1_201_18688"><rect x="6" y="6" width="28" height="28" rx="0"/></clipPath></defs><g clip-path="url(#master_svg0_201_18685)"><g clip-path="url(#master_svg1_201_18688)"><path d="M28.166666,9.5C28.166666,9.5,11.8333333,9.5,11.8333333,9.5C10.55,9.5,9.5,10.55,9.5,11.8333333C9.5,11.8333333,9.5,28.166666,9.5,28.166666C9.5,29.449999,10.55,30.5,11.8333333,30.5C11.8333333,30.5,28.166666,30.5,28.166666,30.5C29.449999,30.5,30.5,29.449999,30.5,28.166666C30.5,28.166666,30.5,11.8333333,30.5,11.8333333C30.5,10.55,29.449999,9.5,28.166666,9.5C28.166666,9.5,28.166666,9.5,28.166666,9.5ZM28.166666,28.166666C28.166666,28.166666,11.8333333,28.166666,11.8333333,28.166666C11.8333333,28.166666,11.8333333,11.8333333,11.8333333,11.8333333C11.8333333,11.8333333,28.166666,11.8333333,28.166666,11.8333333C28.166666,11.8333333,28.166666,28.166666,28.166666,28.166666C28.166666,28.166666,28.166666,28.166666,28.166666,28.166666ZM22.496667000000002,19.836666C22.496667000000002,19.836666,18.9966669,24.34,18.9966669,24.34C18.9966669,24.34,16.5,21.33,16.5,21.33C16.5,21.33,13,25.833332,13,25.833332C13,25.833332,27,25.833332,27,25.833332C27,25.833332,22.496667000000002,19.836666,22.496667000000002,19.836666C22.496667000000002,19.836666,22.496667000000002,19.836666,22.496667000000002,19.836666Z" fill="#000000" fill-opacity="1"/></g></g></svg>