<svg xmlns="http://www.w3.org/2000/svg" xmlns:xlink="http://www.w3.org/1999/xlink" fill="none" version="1.1" width="24" height="24" viewBox="0 0 24 24"><defs><clipPath id="master_svg0_194_10598"><rect x="0" y="0" width="24" height="24" rx="0"/></clipPath></defs><g clip-path="url(#master_svg0_194_10598)"><path d="M15.5,11C16.3284299,11,17,10.3284299,17,9.5C17,8.67157298,16.3284299,8,15.5,8C14.67157298,8,14,8.67157298,14,9.5C14,10.3284299,14.67157298,11,15.5,11C15.5,11,15.5,11,15.5,11Z" fill="#000000" fill-opacity="1"/><path d="M8.5,11C9.3284299,11,10,10.3284299,10,9.5C10,8.67157298,9.3284299,8,8.5,8C7.67157298,8,7,8.67157298,7,9.5C7,10.3284299,7.67157298,11,8.5,11C8.5,11,8.5,11,8.5,11Z" fill="#000000" fill-opacity="1"/><path d="M12,16C10.5200005,16,9.25,15.19,8.5500002,14C8.5500002,14,6.8800001,14,6.8800001,14C7.6799998,16.05,9.6700001,17.5,12,17.5C14.33,17.5,16.32,16.05,17.119999999999997,14C17.119999999999997,14,15.45,14,15.45,14C14.75,15.19,13.48,16,12,16C12,16,12,16,12,16ZM11.9899998,2C6.4699998,2,2,6.48,2,12C2,17.52,6.4699998,22,11.9899998,22C17.52,22,22,17.52,22,12C22,6.48,17.52,2,11.9899998,2C11.9899998,2,11.9899998,2,11.9899998,2ZM12,20C7.5799999,20,4,16.42,4,12C4,7.5799999,7.5799999,4,12,4C16.42,4,20,7.5799999,20,12C20,16.42,16.42,20,12,20C12,20,12,20,12,20Z" fill="#000000" fill-opacity="1"/></g></svg>