<svg xmlns="http://www.w3.org/2000/svg" xmlns:xlink="http://www.w3.org/1999/xlink" fill="none" version="1.1" width="28" height="28" viewBox="0 0 28 28"><defs><clipPath id="master_svg0_201_18893"><rect x="-1.100000023841858" y="-1.100000023841858" width="30.200000047683716" height="30.200000047683716" rx="0"/></clipPath></defs><g clip-path="url(#master_svg0_201_18893)"><path d="M4.6766052296875,25.5999356484375L23.3333719296875,25.5999796484375L23.3344989296875,25.5999796484375Q25.3155629296875,25.5979476484375,26.3052159296875,23.8817886484375Q27.2948699296875,22.1656286484375,26.3043349296875,20.4499776484375L16.9734419296875,4.1208914484375Q15.9889749296875,2.3837647484374997,13.9883719296875,2.3837646484375Q11.9877720296875,2.3837646484375,11.0013742296875,4.1242883184375L1.6699725396875,20.4542276484375Q0.6760530296875,22.1755316484375,1.6800717696875,23.8966956484375Q2.6840840296875,25.6178626484375,4.6766052296875,25.5999356484375ZM23.3333719296875,23.3999766484375L23.3322449296875,23.3999786484375L4.6568093296874995,23.4000246484375Q3.9410511296874997,23.4064656484375,3.5803829296875,22.7881756484375Q3.2197184596875,22.1698966484375,3.5801074296874997,21.5457326484375L12.9153749296875,5.2090002484374995Q13.2697109296875,4.5837646484375,13.9883719296875,4.5837646484375Q14.7070359296875,4.5837646484375,15.0633069296875,5.2123969484375L24.3990799296875,21.5499816484375Q24.7549019296875,22.1662826484375,24.3993969296875,22.7827646484375Q24.0441719296875,23.3987616484375,23.3333719296875,23.3999766484375Z" fill-rule="evenodd" fill="#F74951" fill-opacity="1"/><path d="M12.9002199,10.5Q12.9002199,10.445971273,12.9055157,10.39220271Q12.9108114,10.33843414,12.9213519,10.28544357Q12.9318924,10.23245299,12.947576,10.18075073Q12.9632598,10.12904844,12.9839358,10.07913244Q13.00461167,10.02921638,13.03008062,9.98156726Q13.05554962,9.93391824,13.0855664,9.88899499Q13.11558306,9.84407169,13.14985853,9.80230689Q13.18413401,9.76054215,13.22233808,9.72233808Q13.26054215,9.68413401,13.30230689,9.64985853Q13.34407169,9.61558306,13.38899499,9.5855664Q13.43391824,9.55554962,13.48156726,9.53008068Q13.52921638,9.50461167,13.57913244,9.4839358Q13.62904844,9.4632598,13.6807507,9.447576Q13.73245299,9.4318924,13.78544357,9.4213519Q13.83843414,9.4108114,13.89220271,9.4055157Q13.945971273,9.4002199,14,9.4002199Q14.054028727,9.4002199,14.10779729,9.4055157Q14.16156586,9.4108114,14.21455643,9.4213519Q14.26754701,9.4318924,14.31924927,9.447576Q14.37095156,9.4632598,14.42086756,9.4839358Q14.47078362,9.50461167,14.51843274,9.53008062Q14.56608176,9.55554962,14.61100501,9.5855664Q14.65592831,9.61558306,14.69769311,9.64985853Q14.73945785,9.68413401,14.77766192,9.72233808Q14.81586599,9.76054215,14.85014147,9.80230689Q14.88441694,9.84407169,14.9144336,9.88899499Q14.94445038,9.93391824,14.96991932,9.98156726Q14.99538833,10.02921638,15.0160642,10.07913244Q15.0367402,10.12904844,15.052424,10.1807507Q15.0681076,10.23245299,15.0786481,10.28544357Q15.0891886,10.33843414,15.0944843,10.39220271Q15.0997801,10.445971273,15.0997801,10.5L15.1,10.5L15.1,15.166666L15.0997801,15.166666Q15.0997801,15.2206945,15.0944843,15.2744632Q15.0891886,15.328231800000001,15.0786481,15.381221799999999Q15.0681076,15.4342127,15.052424,15.4859147Q15.0367402,15.5376172,15.0160642,15.587533Q14.99538833,15.6374493,14.96991938,15.6850986Q14.94445038,15.732748,14.9144336,15.7776709Q14.88441694,15.8225946,14.85014147,15.8643594Q14.81586599,15.9061241,14.77766192,15.9443278Q14.73945785,15.982531999999999,14.69769311,16.0168076Q14.65592831,16.0510831,14.61100501,16.0810995Q14.56608176,16.1111164,14.51843274,16.1365857Q14.47078362,16.1620541,14.42086756,16.1827297Q14.37095156,16.2034059,14.3192493,16.2190895Q14.26754701,16.2347736,14.21455643,16.2453136Q14.16156586,16.2558546,14.10779729,16.2611508Q14.054028727,16.2664461,14,16.2664461Q13.945971273,16.2664461,13.89220271,16.2611508Q13.83843414,16.255855099999998,13.78544357,16.2453141Q13.73245299,16.2347736,13.68075073,16.21909Q13.62904844,16.2034059,13.57913244,16.1827297Q13.52921638,16.1620541,13.48156726,16.1365852Q13.43391824,16.1111164,13.38899499,16.081099000000002Q13.34407169,16.0510826,13.30230689,16.0168066Q13.26054215,15.9825315,13.22233808,15.944327399999999Q13.18413401,15.9061232,13.14985853,15.8643589Q13.11558306,15.822593699999999,13.0855664,15.7776704Q13.05554962,15.732747100000001,13.03008068,15.685098199999999Q13.00461167,15.6374493,12.9839358,15.587533Q12.9632598,15.5376172,12.947576,15.4859152Q12.9318924,15.4342127,12.9213519,15.381221799999999Q12.9108114,15.328231800000001,12.9055157,15.2744632Q12.9002199,15.2206945,12.9002199,15.166666L12.9,15.166666L12.9,10.5L12.9002199,10.5Z" fill-rule="evenodd" fill="#F74951" fill-opacity="1"/><path d="M14,20.93309308828125L14,20.93331298828125L14.011666018,20.93331298828125L14.011666018,20.93309308828125Q14.065694749,20.93309308828125,14.11946332,20.92779728828125Q14.17323188,20.92250158828125,14.22622246,20.91196108828125Q14.27921304,20.90142058828125,14.330915300000001,20.88573698828125Q14.38261759,20.87005318828125,14.43253359,20.84937718828125Q14.48244965,20.82870131828125,14.5300988,20.80323236828125Q14.57774782,20.77776336828125,14.622671069999999,20.74774658828125Q14.66759431,20.71772992828125,14.70935917,20.68345445828125Q14.75112391,20.64917897828125,14.78932798,20.61097490828125Q14.82753211,20.57277083828125,14.86180758,20.53100609828125Q14.896083,20.48924129828125,14.92609966,20.44431799828125Q14.9561165,20.39939474828125,14.98158538,20.35174572828125Q15.0070543,20.30409660828125,15.0277302,20.25418054828125Q15.0484061,20.20426454828125,15.064089899999999,20.15256228828125Q15.0797737,20.10085999828125,15.090314,20.04786941828125Q15.1008546,19.99487884828125,15.1061504,19.94111027828125Q15.1114461,19.88734171528125,15.1114461,19.83331298828125Q15.1114461,19.77928426128125,15.1061504,19.72551569828125Q15.1008546,19.67174712828125,15.090314,19.61875655828125Q15.0797737,19.56576597828125,15.064089899999999,19.51406371828125Q15.0484061,19.46236142828125,15.0277302,19.41244542828125Q15.0070543,19.36252936828125,14.98158544,19.31488024828125Q14.95611656,19.26723122828125,14.92609972,19.22230797828125Q14.89608306,19.17738467828125,14.86180758,19.13561987828125Q14.82753211,19.09385513828125,14.78932798,19.05565106828125Q14.75112391,19.01744699828125,14.70935911,18.98317151828125Q14.66759431,18.94889604828125,14.622671069999999,18.91887938828125Q14.57774782,18.88886260828125,14.5300988,18.86339366828125Q14.48244968,18.83792465828125,14.43253362,18.81724878828125Q14.38261759,18.79657278828125,14.33091533,18.78088898828125Q14.27921307,18.76520538828125,14.2262225,18.75466488828125Q14.17323193,18.74412438828125,14.11946336,18.73882868828125Q14.065694794,18.73353288828125,14.011666059,18.73353288828125L14.011666018,18.73331298828125L14,18.73331298828125L14,18.73353288828125Q13.945971273,18.73353288828125,13.89220271,18.73882868828125Q13.83843414,18.74412438828125,13.78544357,18.75466488828125Q13.73245299,18.76520538828125,13.68075073,18.78088898828125Q13.62904844,18.79657278828125,13.57913244,18.81724878828125Q13.52921638,18.83792465828125,13.48156726,18.86339360828125Q13.43391824,18.88886260828125,13.38899499,18.91887938828125Q13.34407169,18.94889604828125,13.30230689,18.98317151828125Q13.26054215,19.01744699828125,13.22233808,19.05565106828125Q13.18413401,19.09385513828125,13.14985853,19.13561987828125Q13.11558306,19.17738467828125,13.0855664,19.22230797828125Q13.05554962,19.26723122828125,13.03008068,19.31488024828125Q13.00461167,19.36252936828125,12.9839358,19.41244542828125Q12.9632598,19.46236142828125,12.947576,19.51406368828125Q12.9318924,19.56576597828125,12.9213519,19.61875655828125Q12.9108114,19.67174712828125,12.9055157,19.72551569828125Q12.9002199,19.77928426128125,12.9002199,19.83331298828125Q12.9002199,19.88734171528125,12.9055157,19.94111027828125Q12.9108114,19.99487884828125,12.9213519,20.04786941828125Q12.9318924,20.10085999828125,12.947576,20.15256225828125Q12.9632598,20.20426454828125,12.9839358,20.25418054828125Q13.00461167,20.30409660828125,13.03008062,20.35174572828125Q13.05554962,20.39939474828125,13.0855664,20.44431799828125Q13.11558306,20.48924129828125,13.14985853,20.53100609828125Q13.18413401,20.57277083828125,13.22233808,20.61097490828125Q13.26054215,20.64917897828125,13.30230689,20.68345445828125Q13.34407169,20.71772992828125,13.38899499,20.74774658828125Q13.43391824,20.77776336828125,13.48156726,20.80323230828125Q13.52921638,20.82870131828125,13.57913244,20.84937718828125Q13.62904844,20.87005318828125,13.6807507,20.88573698828125Q13.73245299,20.90142058828125,13.78544357,20.91196108828125Q13.83843414,20.92250158828125,13.89220271,20.92779728828125Q13.945971273,20.93309308828125,14,20.93309308828125Z" fill-rule="evenodd" fill="#F74951" fill-opacity="1"/></g></svg>