<svg xmlns="http://www.w3.org/2000/svg" xmlns:xlink="http://www.w3.org/1999/xlink" fill="none" version="1.1" width="24" height="24" viewBox="0 0 24 24"><defs><clipPath id="master_svg0_201_19514"><rect x="0" y="0" width="24" height="24" rx="0"/></clipPath></defs><g clip-path="url(#master_svg0_201_19514)"><path d="M9,12C10.9300003,12,12.5,10.429999800000001,12.5,8.5C12.5,6.5700001,10.9300003,5,9,5C7.0700002,5,5.5,6.5700001,5.5,8.5C5.5,10.429999800000001,7.0700002,12,9,12C9,12,9,12,9,12ZM9,7C9.8299999,7,10.5,7.6700001,10.5,8.5C10.5,9.3299999,9.8299999,10,9,10C8.1700001,10,7.5,9.3299999,7.5,8.5C7.5,7.6700001,8.1700001,7,9,7C9,7,9,7,9,7ZM9,13.75C6.6599998,13.75,2,14.9200001,2,17.25C2,17.25,2,19,2,19C2,19,16,19,16,19C16,19,16,17.25,16,17.25C16,14.9200001,11.3400002,13.75,9,13.75C9,13.75,9,13.75,9,13.75ZM4.3399999000000005,17C5.1800001,16.42,7.21,15.75,9,15.75C10.79,15.75,12.82,16.42,13.66,17C13.66,17,4.3399999000000005,17,4.3399999000000005,17C4.3399999000000005,17,4.3399999000000005,17,4.3399999000000005,17ZM16.04,13.8100004C17.2,14.6499996,18,15.77,18,17.25C18,17.25,18,19,18,19C18,19,22,19,22,19C22,19,22,17.25,22,17.25C22,15.23,18.5,14.0799999,16.04,13.8100004C16.04,13.8100004,16.04,13.8100004,16.04,13.8100004ZM15,12C16.93,12,18.5,10.429999800000001,18.5,8.5C18.5,6.5700001,16.93,5,15,5C14.46,5,13.96,5.13,13.5,5.34999999C14.13,6.24,14.5,7.3299999,14.5,8.5C14.5,9.6700001,14.13,10.7600002,13.5,11.6500001C13.96,11.8699999,14.46,12,15,12C15,12,15,12,15,12Z" fill="#AA6B28" fill-opacity="1"/></g></svg>